<?xml version="1.0" encoding="UTF-8"?>
<svg id="Layer_1" data-name="Layer 1" xmlns="http://www.w3.org/2000/svg" viewBox="0 0 671.5 763.079">
  <defs>
    <style>
      .cls-1, .cls-2 {
        fill: #161d22;
      }

      .cls-3 {
        fill: #3bad49;
      }

      .cls-2 {
        font-family: MyriadPro-Regular, 'Myriad Pro';
        font-size: 702px;
      }

      .cls-4 {
        fill: #76ca75;
      }

      .cls-5 {
        fill: #db2927;
      }

      .cls-6 {
        fill: #f64d49;
      }
    </style>
  </defs>
  <rect class="cls-1" y="163.866" width="142.5" height="389.5" rx="21.75" ry="21.75"/>
  <rect class="cls-1" x="61" y="53.741" width="19.5" height="116.625" rx="9.75" ry="9.75"/>
  <rect class="cls-1" x="61" y="546.866" width="19.5" height="116.625" rx="9.75" ry="9.75"/>
  <path class="cls-6" d="M122.25,536.116H20.25c-1.657,0-3-1.343-3-3V184.116c0-1.657,1.343-3,3-3H122.25c1.657,0,3,1.343,3,3v349c0,1.657-1.343,3-3,3Z"/>
  <rect class="cls-5" x="45.25" y="181.116" width="80" height="355" rx="3" ry="3"/>
  <rect class="cls-1" x="529" y="163.866" width="142.5" height="389.5" rx="21.75" ry="21.75"/>
  <rect class="cls-1" x="590" y="53.741" width="19.5" height="116.625" rx="9.75" ry="9.75"/>
  <rect class="cls-1" x="590" y="546.866" width="19.5" height="116.625" rx="9.75" ry="9.75"/>
  <path class="cls-4" d="M651.25,536.116h-102c-1.657,0-3-1.343-3-3V184.116c0-1.657,1.343-3,3-3h102c1.657,0,3,1.343,3,3v349c0,1.657-1.343,3-3,3Z"/>
  <rect class="cls-3" x="574.25" y="181.116" width="80" height="355" rx="3" ry="3"/>
  <text class="cls-2" transform="translate(155.875 587.578)"><tspan x="0" y="0">0</tspan></text>
</svg>